# xmcd
#
# Track frame offsets: 
#        150
#        11977
#        24839
#        36913
#        49950
#        63692
#        75287
#        85419
#        97474
#        111681
#        126825
#        140605
#        155342
#        168079
#        180989
#        193832
#        207815
#        219642
#        232689
#        245653
#        259356
#        272183
#
# Disc length: 3812 seconds
#
# Revision: 1
# Processed by: cddbd v1.5.2PL0 Copyright (c) Steve Scherf et al.
# Submitted via: ExactAudioCopy v0.99pb5
#
DISCID=440ee216
DTITLE=Billie Holiday - The Complete Columbia Golden Years Volume 2 CD
DTITLE=2
DYEAR=1937
DGENRE=Jazz
TTITLE0=My, Myself and I
TTITLE1=A Sailboat In the Moonlight
TTITLE2=Born to Love
TTITLE3=Without Your Love
TTITLE4=Getting Some Fun Out of Life
TTITLE5=Who Wants Love?
TTITLE6=Trav'lin All Alone
TTITLE7=He's Funny That Way
TTITLE8=Nice Work If You Can Get It
TTITLE9=Things Are Looking Up
TTITLE10=My Man
TTITLE11=Can't Help Lovin' Dat Man
TTITLE12=My First Impression of You
TTITLE13=When You're Smiling
TTITLE14=I Can't Believe That You're In Love with Me
TTITLE15=If Dreams Come True
TTITLE16=My, Myself and I (alt)
TTITLE17=Without Your Love (alt)
TTITLE18=My First Impression of You (alt)
TTITLE19=When You're Smiling (alt)
TTITLE20=I Can't Believe That You're In Love with Me (alt)
TTITLE21=If Dreams Come True (alt)
EXTD=YEAR: 1937
EXTT0=
EXTT1=
EXTT2=
EXTT3=
EXTT4=
EXTT5=
EXTT6=
EXTT7=
EXTT8=
EXTT9=
EXTT10=
EXTT11=
EXTT12=
EXTT13=
EXTT14=
EXTT15=
EXTT16=
EXTT17=
EXTT18=
EXTT19=
EXTT20=
EXTT21=
PLAYORDER=
